/* XPM */
static char *_5fd16a5cd6b4df0ec44e3082fc10a7cHvRD5n6OPhOG4IyP[] = {
/* columns rows colors chars-per-pixel */
"128 128 73 1 ",
"  c None",
". c #F4771D",
"X c #F4771E",
"o c #F4781D",
"O c #F4781E",
"+ c #F4781F",
"@ c #F4791F",
"# c #F47920",
"$ c #F47921",
"% c #F47A21",
"& c #F47C25",
"* c #F47C26",
"= c #F47D26",
"- c #F47D27",
"; c #F47F29",
": c #F47F2B",
"> c #F57F2B",
", c #F5812D",
"< c #F5812E",
"1 c #F58330",
"2 c #F58331",
"3 c #F58432",
"4 c #F58433",
"5 c #F58434",
"6 c #F58534",
"7 c #F58535",
"8 c #F58635",
"9 c #F58636",
"0 c #F58637",
"q c #F58737",
"w c #F58738",
"e c #F58839",
"r c #F5893B",
"t c #F58A3D",
"y c #F58B3E",
"u c #F58B3F",
"i c #F58C3F",
"p c #F58C40",
"a c #F68E43",
"s c #F68E44",
"d c #F68F44",
"f c #F68F45",
"g c #F69046",
"h c #F69148",
"j c #F6924A",
"k c #F6934B",
"l c #F6934C",
"z c #F6944C",
"x c #F6944D",
"c c #F6944E",
"v c #F6954E",
"b c #F6954F",
"n c #F69650",
"m c #F69651",
"M c #F69751",
"N c #F69752",
"B c #F69853",
"V c #F69954",
"C c #F79955",
"Z c #F79B58",
"A c #F79E5D",
"S c #F79E5E",
"D c #F79F5F",
"F c #F7A060",
"G c #F7A061",
"H c #F7A161",
"J c #F7A162",
"K c #F7A163",
"L c #F7A263",
"P c #F7A264",
"I c #F7A365",
"U c #F7A366",
"Y c #F7A467",
/* pixels */
"                           #####                                                                #####                           ",
"                           #####                                                                #####                           ",
"                           #####                                                                #####                           ",
"                           #####                                                                #####                           ",
"                           #####                                                                #####                           ",
"                           #####                                                                #####                           ",
"                           #####                                                                #####                           ",
"                           #####                                                                #####                           ",
"                           #####                                                                #####                           ",
"                           #####                                                                #####                           ",
"                           #####                                                                #####                           ",
"                           #####                                                                #####                           ",
"                           #####                                                                #####                           ",
"                           #####                                                                #####                           ",
"                           #####                                                                #####                           ",
"                           #####                                                                #####                           ",
"                           #####                                                                #####                           ",
"                           #####                                                                #####                           ",
"                           #####                                                                #####                           ",
"                           #####                                                                #####                           ",
"                           #####                                                                #####                           ",
"                           #####                                                                #####                           ",
"                           #####                                                                #####                           ",
"                           #####                                                                #####                           ",
"                           #####                                                                #####                           ",
"                           #####                                                                #####                           ",
"                           #####                                                                #####                           ",
"                           #####                                                                #####                           ",
"                           #####                                                                #####                           ",
"                           #####                                                                #####                           ",
"                           #####                                                                #####                           ",
"                           #####                                                                #####                           ",
"                           #####                                                                #####                           ",
"              ##           #####                                                                #####           ##              ",
"            ####           ######                                                              ######           ####            ",
"           ######          ########                                                          ########          ######           ",
"           #######         #########                                                        #########         #######           ",
"            #######          ########                                                      ########          #######            ",
"             ######           ########                                                    ########           ######             ",
"              ######           #########                                                #########           ######              ",
"              #######           #########                  LLA    ALL                  #########           #######              ",
"               #######            ########                LGLLL  LLGGL                ########            #######               ",
"                ######             ########              LGLGLL  LGLGLL              ########             ######                ",
"                 ######             #########            LLGLGL  LLGLLL            #########             ######                 ",
"                 #######             #########          GLGLLG    LGGLGG          #########             #######                 ",
"                  #######              ########         GLLGGL    ALLGLG         ########              #######                  ",
"                   #######              ########        ALGLL      LLGGG        ########              #######                   ",
"                    ######               #########      GGLGLL    LLGLGL      #########               ######                    ",
"                    #######               #########     LLLLACzcccBAJJJJ     #########               #######                    ",
"                     #######                ########     LAnchczcchzBAJ     ########                #######                     ",
"                      #######                ########    ZczcczczccczzZ    ########                #######                      ",
"                       ######                 ######### czzzccczcccccczz #########                 ######                       ",
"                       #######                 #######O2cccczczczczczccn2########                 #######                       ",
"                        #######                  ######dccczczczczczczccd######                  #######                        ",
"                         ##########               ###.,nczzczczczczczczzn>.###               ##########                         ",
"                          ##############           ##.rnzzczczczczczczczntO##           ##############                          ",
"                          ###################       ##dnlccczczczczczczccdO#       ###################                          ",
"                           #######################    dnlczcczczczczczczcd    #######################                           ",
"                            ##########################hcczczzczczczczczcch##########################                            ",
"                                 ####################.dczczcczczczczczcznd#####################                                 ",
"                                      ################pnzczczczczczczczznp################                                      ",
"                                           ##########.tnzzczczczczczczcznt.##########                                           ",
"                                             ########.wnzzcczcccczzczcccn7.########                                             ",
"                                   ##################.2nzczccczzzccccczcn2.###################                                  ",
"                            ########################$.,cvvvkayeeqrrghcczc,O#########################                            ",
"                           #########################$o,cvkyq65q57773qiccc,O##########################                           ",
"                          ##########################o$=caq655qqq7q7q73qgc=O###########################                          ",
"                         ########################      i55qq5q5qq7q7q777i      ########################                         ",
"                         #############                q7qqq5q5qq7q7q7q7q7w                #############                         ",
"                        #######                      e7qq5qqq5q5q7q7q7q7777                      #######                        ",
"                       #######                      65q55q5qqq5q7q7q7q7qw7r2                      #######                       ",
"                      #######                     O:e5qqqq5q5qqqq7q7q7q7r777:O                     #######                      ",
"                      ######                     O=777r75qqq5qq5q7q7q7q7777qq=O                     ######                      ",
"                     #######                   ###7ww777qq5q5qq57q7q7q7qq7q777###                   #######                     ",
"                    #######                   ###,w7q7q7q5q5qqqqq7q7q7q77q7q7r,###                   #######                    ",
"                   #######                  ####=77w7q7qq5qqq55q7q7q7q7qq7q77w7=O###                  #######                   ",
"                   ######                 #####O3qq7q7q7q5qqq55qq7q7q7q7q7q777r<OO####                 ######                   ",
"                  ######                 ######=qq7q7q7qq5q5qqqq7q7q7q7q7q7q7qqq:O#####                 ######                  ",
"                 #######               #######O3q7q7q7q7qq5q5qq577q7q7q7q7q7q77q,########               #######                 ",
"                #######               #######O=qq77q7q7q5qqq5ee5rrqq7q7q7q7q7q7qr=########               #######                ",
"                ######              #########O3w5qqq5qq5qqq56BLAALB3q7777q7q7q7q73O#########              ######                ",
"               ######              #########  r7qq5q5qq5q55e6BULLIB37r7qq7q7q7q7qq  #########              ######               ",
"              #######            ##########   77q5q5qqqqe5qq5BULAIB777q77q7q7q7q7q   ##########            #######              ",
"             #######           ##########    q77q5qqq55q5e5q5nUALIB3rr7qq7q7q7q7q77    ##########           #######             ",
"             ######           ##########     7q7q5qqq55q55664nLLLUn337377q7qq7q77q7     ##########           ######             ",
"            ######          ##########      7q7qq5q5qqqqBVBBnALLLUAnBBBnqqq77q7qq77r      ##########          ######            ",
"           #######         ##########       q7q7qq5q5q6eLIILULLLALLULUULq7q7q7q77qq7       ##########         #######           ",
"           ######          ########         7q7q5qqq5qqeALLLLLALLLLALLLArq7q7q7qq77q         ########          ######           ",
"             ###           #######          7q7q5qqq5qqeALLLLALLLGLAALLAr77qq7q77q7q          #######           ###             ",
"              #            #####           qq7q7qq5q5q5eLULUULLLGLLUUUILr3q77q7qq7q77           #####            #              ",
"                           #####           77q7qq5q5qqqennnVnALLLUAnBBBBqq7qq7q77q7qq           #####                           ",
"                           #####           qq7q7q5qqq55q55466nIALIn3773777q77q7qq7q77           #####                           ",
"                           #####           q7q7qq5qqq55qwewe5BILAIB777q7q7q7q7q77q7q7           #####                           ",
"                           #####           7q7q7q5q5qqqq55555CILLIB77r7q7q7q7q7qq7q7q           #####                           ",
"                           #####           q7q7qqq5q5qq55qew6nIALIB377r7q7q7q7q77q7q7           #####                           ",
"                           #####           7q7q75qqq5qq5e5e56CILAIB7w7777q7q7q7qq7q7q           #####                           ",
"                           #####           qq7q7q7q7q7q77q777CILLUB7wq7q7q7q7q7q7q7q7           #####                           ",
"                           #####           77q7q7q7q7q7qq7qw3BIAAUB277q7q7q7q7q7q7q7q           #####                           ",
"                           #####           qq7q7q7q7q7q77q777CULLUB7w77q7q7q7q7q7q7q7           #####                           ",
"                           #####           77q7q7q7q7q7qq7q77nLGLLB3r7q7q7q7q7q7q7q7q           #####                           ",
"                           #####           7q7q7q7q7q7q77q7r2BUULUC3w77q7q7q7q7q7q7qq           #####                           ",
"                           #####           q7q7q7q7q7q7qq7q77addada7q7q7q7q7q7q7q7q77           #####                           ",
"                           #####            q7q7q7q7q7q77q7q773333377q7q7q7q7q7q7q7q            #####                           ",
"                           #####            7q7q7q7q7q7qq7q7q7r7wr77q7q7q7q7q7q7q7q7            #####                           ",
"                           #####            q7q7q7q77q7q7q7q7q7q77q7q7q77q7q7q7q7q7q            #####                           ",
"                           #####             q7q7q7qq7q7q7q7q7q7w77q7q7qq7q7q7q7q7q             #####                           ",
"                           #####             7q7q7q77q7q7q7q7q7q7777q7q77q7q7q7q7q7             #####                           ",
"                           #####              7q7q7qq7q7q7q7q7q77r7q7q7qq7q7q7q7q7              #####                           ",
"                           #####               7q77q7q7q7q7q7q7qq7q7q7q77q7q7q7q7               #####                           ",
"                           #####                7qq7q7q7q7q7q7q77q7q7q7qq7q7q7q7                #####                           ",
"                           #####                qq7q7q7q7q7q7q7qq7q7q7q77q7q7q7q                #####                           ",
"                           #####                 7q7q7q7q7q7q7q77q7q7q7qq7q7q7q                 #####                           ",
"                           #####                   q7q7qq7q7q7q7q7q7q7q7q7q7q7                  #####                           ",
"                           #####                    q7q77q7q7q7q7q7q7q7q7q7q                    #####                           ",
"                           #####                     77qq7q7q7q7q7q7q7q7qq7                     #####                           ",
"                           #####                       q7q7q7q7q7q7q7q7q7                       #####                           ",
"                           #####                          q7q7q7q7q7q7                          #####                           ",
"                           #####                                                                #####                           ",
"                           #####                                                                #####                           ",
"                           #####                                                                #####                           ",
"                           #####                                                                #####                           ",
"                           #####                                                                #####                           ",
"                           #####                                                                #####                           ",
"                           #####                                                                #####                           ",
"                           #####                                                                #####                           ",
"                           #####                                                                #####                           ",
"                           #####                                                                #####                           ",
"                           #####                                                                #####                           "
};
